<svg width="109" height="19" viewBox="0 0 109 19" fill="none" xmlns="http://www.w3.org/2000/svg">
<path d="M6.32422 11.25H4.37891V18H0.265625V0.9375H4.37891V7.53516H5.96094L9.24219 0.9375H14.2227L9.53516 8.8125L14.8086 18H9.94531L6.32422 11.25ZM23.0234 5.32031H26.9844V18H23.0234V10.6172L19.543 18H15.5703V5.32031H19.543V12.6797L23.0234 5.32031ZM40.3906 18H36.4297V13.3008H32.9727V18H29.0234V5.32031H32.9727V10.2656H36.4297V5.32031H40.3906V18ZM42.0547 11.543C42.0547 10.2773 42.3008 9.15234 42.793 8.16797C43.2852 7.17578 43.9922 6.41406 44.9141 5.88281C45.8359 5.35156 46.918 5.08594 48.1602 5.08594C50.0586 5.08594 51.5547 5.67578 52.6484 6.85547C53.7422 8.02734 54.2891 9.625 54.2891 11.6484V11.7891C54.2891 13.7656 53.7383 15.3359 52.6367 16.5C51.543 17.6562 50.0586 18.2344 48.1836 18.2344C46.3789 18.2344 44.9297 17.6953 43.8359 16.6172C42.7422 15.5312 42.1523 14.0625 42.0664 12.2109L42.0547 11.543ZM46.0039 11.7891C46.0039 12.9609 46.1875 13.8203 46.5547 14.3672C46.9219 14.9141 47.4648 15.1875 48.1836 15.1875C49.5898 15.1875 50.3086 14.1055 50.3398 11.9414V11.543C50.3398 9.26953 49.6133 8.13281 48.1602 8.13281C46.8398 8.13281 46.125 9.11328 46.0156 11.0742L46.0039 11.7891ZM66.3008 12.2109V18H62.1875V0.9375H68.9961C70.3008 0.9375 71.4531 1.17969 72.4531 1.66406C73.4609 2.14062 74.2383 2.82422 74.7852 3.71484C75.3398 4.59766 75.6172 5.60156 75.6172 6.72656C75.6172 8.39062 75.0195 9.72266 73.8242 10.7227C72.6367 11.7148 71.0039 12.2109 68.9258 12.2109H66.3008ZM66.3008 9.03516H68.9961C69.793 9.03516 70.3984 8.83594 70.8125 8.4375C71.2344 8.03906 71.4453 7.47656 71.4453 6.75C71.4453 5.95312 71.2305 5.31641 70.8008 4.83984C70.3711 4.36328 69.7852 4.12109 69.043 4.11328H66.3008V9.03516ZM81.8047 18H77.8438V0H81.8047V18ZM91.8008 16.6289C90.9648 17.6992 89.8359 18.2344 88.4141 18.2344C87.0234 18.2344 85.9688 17.832 85.25 17.0273C84.5391 16.2148 84.1836 15.0508 84.1836 13.5352V5.32031H88.1328V13.5586C88.1328 14.6445 88.6602 15.1875 89.7148 15.1875C90.6211 15.1875 91.2656 14.8633 91.6484 14.2148V5.32031H95.6211V18H91.918L91.8008 16.6289ZM104.434 14.4375C104.434 14.1016 104.258 13.832 103.906 13.6289C103.555 13.4258 102.887 13.2148 101.902 12.9961C100.918 12.7773 100.105 12.4922 99.4648 12.1406C98.8242 11.7812 98.3359 11.3477 98 10.8398C97.6641 10.332 97.4961 9.75 97.4961 9.09375C97.4961 7.92969 97.9766 6.97266 98.9375 6.22266C99.8984 5.46484 101.156 5.08594 102.711 5.08594C104.383 5.08594 105.727 5.46484 106.742 6.22266C107.758 6.98047 108.266 7.97656 108.266 9.21094H104.305C104.305 8.19531 103.77 7.6875 102.699 7.6875C102.285 7.6875 101.938 7.80469 101.656 8.03906C101.375 8.26562 101.234 8.55078 101.234 8.89453C101.234 9.24609 101.406 9.53125 101.75 9.75C102.094 9.96875 102.641 10.1484 103.391 10.2891C104.148 10.4297 104.812 10.5977 105.383 10.793C107.289 11.4492 108.242 12.625 108.242 14.3203C108.242 15.4766 107.727 16.418 106.695 17.1445C105.672 17.8711 104.344 18.2344 102.711 18.2344C101.625 18.2344 100.656 18.0391 99.8047 17.6484C98.9531 17.2578 98.2891 16.7266 97.8125 16.0547C97.3359 15.3828 97.0977 14.6758 97.0977 13.9336H100.789C100.805 14.5195 101 14.9492 101.375 15.2227C101.75 15.4883 102.23 15.6211 102.816 15.6211C103.355 15.6211 103.758 15.5117 104.023 15.293C104.297 15.0742 104.434 14.7891 104.434 14.4375Z" fill="white"/>
</svg>
